# xmcd CD database file
#
# Track frame offsets:
#	150
#	23100
#	45375
#	67875
#	88575
#	112800
#	136275
#	162075
#	186150
#	210300
#	234900
#	258450
#
# Disc length: 3761 seconds
#
# Revision: 1
# Processed by: cddbd v1.5.1PL2 Copyright (c) Steve Scherf et al.
# Submitted via: freeDBTagger 0.8.2.1
#
DISCID=8e0eaf0c
DTITLE=THE ALFEE - 30th ANNIVERSARY Hit Single Collection 3 [CD2]
DYEAR=2004
DGENRE=misc
TTITLE0=1月の雨を忘れない
TTITLE1=WEEKEND SHUFFLE-華やかな週末-
TTITLE2=19(nineteen)
TTITLE3=FAITH OF LOVE
TTITLE4=恋人の歌がきこえる
TTITLE5=FLOWER REVOLUTION
TTITLE6=Promised Love
TTITLE7=Believe
TTITLE8=Victory
TTITLE9=もう一度君に逢いたい
TTITLE10=まだ見ぬ君への愛の詩
TTITLE11=COMPLEX BLUE-愛だけ哀しすぎて-
EXTD=
EXTT0=
EXTT1=
EXTT2=
EXTT3=
EXTT4=
EXTT5=
EXTT6=
EXTT7=
EXTT8=
EXTT9=
EXTT10=
EXTT11=
PLAYORDER=
